<?xml version="1.0" encoding="UTF-8" standalone="no"?>
<svg
   version="1.0"
   width="99.990585mm"
   height="32.511761mm"
   id="svg22"
   xmlns="http://www.w3.org/2000/svg"
   xmlns:svg="http://www.w3.org/2000/svg">
  <defs
     id="defs1">
    <clipPath
       clipPathUnits="userSpaceOnUse"
       id="clipEmfPath1">
      <path
         d="M 1.0399923,1.0399923 H 378.95719 V 123.83908 H 1.0399923 Z"
         id="path1" />
    </clipPath>
  </defs>
  <path
     style="fill:#ffcc00;fill-opacity:1;fill-rule:nonzero;stroke:none"
     d="M -3.2458496e-8,122.87909 H 377.9172 V 0 H -3.2458496e-8 Z"
     id="path2" />
  <path
     style="fill:#d40511;fill-opacity:1;fill-rule:nonzero;stroke:none"
     d="m -3.2458496e-8,57.679573 v 3.839971 H 48.239643 l 2.799979,-3.839971 z"
     id="path3" />
  <path
     style="fill:#d40511;fill-opacity:1;fill-rule:nonzero;stroke:none"
     d="m -3.2458496e-8,50.639625 v 3.839971 H 53.439604 l 2.79998,-3.839971 z"
     id="path4" />
  <path
     style="fill:#d40511;fill-opacity:1;fill-rule:nonzero;stroke:none"
     d="m -3.2458496e-8,64.71952 v 3.839972 H 43.119681 L 45.91966,64.71952 Z"
     id="path5" />
  <path
     style="fill:#d40511;fill-opacity:1;fill-rule:nonzero;stroke:none"
     d="m 329.75756,57.679573 -2.71998,3.839971 h 50.87962 v -3.839971 z"
     id="path6" />
  <path
     style="fill:#d40511;fill-opacity:1;fill-rule:nonzero;stroke:none"
     d="m 324.6376,64.71952 -2.79998,3.839972 H 377.9172 V 64.71952 Z"
     id="path7" />
  <path
     style="fill:#d40511;fill-opacity:1;fill-rule:nonzero;stroke:none"
     d="m 334.95752,50.639625 -2.79998,3.839971 h 45.75966 v -3.839971 z"
     id="path8" />
  <path
     style="fill:#d40511;fill-opacity:1;fill-rule:nonzero;stroke:none"
     clip-path="url(#clipEmfPath1)"
     d="M 50.479626,69.519485 74.719447,36.559729 h 30.159773 c 3.27998,0 3.27998,1.199991 1.59999,3.439975 -1.59999,2.239983 -4.39997,6.079955 -6.07995,8.319938 -0.879997,1.199991 -2.399986,3.279976 2.71998,3.279976 h 40.3197 c -3.35998,4.639965 -14.2399,17.919867 -33.75975,17.919867 z"
     id="path9"
     transform="translate(-1.0399923,-0.95999289)" />
  <path
     style="fill:#d40511;fill-opacity:1;fill-rule:nonzero;stroke:none"
     clip-path="url(#clipEmfPath1)"
     d="m 189.4386,51.599618 -13.19991,17.919867 h -34.63974 c 0,0 13.1199,-17.919867 13.1199,-17.919867 z"
     id="path10"
     transform="translate(-1.0399923,-0.95999289)" />
  <path
     style="fill:#d40511;fill-opacity:1;fill-rule:nonzero;stroke:none"
     clip-path="url(#clipEmfPath1)"
     d="m 239.59823,51.599618 -13.19991,17.919867 h -34.63974 c 0,0 13.1199,-17.919867 13.1199,-17.919867 z"
     id="path11"
     transform="translate(-1.0399923,-0.95999289)" />
  <path
     style="fill:#d40511;fill-opacity:1;fill-rule:nonzero;stroke:none"
     clip-path="url(#clipEmfPath1)"
     d="m 250.87814,51.599618 c 0,0 -2.55998,3.439974 -3.75997,5.119962 -4.39997,5.919956 -0.56,12.799905 13.6799,12.799905 h 55.67959 l 13.1999,-17.919867 z"
     id="path12"
     transform="translate(-1.0399923,-0.95999289)" />
  <path
     style="fill:#d40511;fill-opacity:1;fill-rule:nonzero;stroke:none"
     clip-path="url(#clipEmfPath1)"
     d="M 67.4395,16.079881 55.35959,32.479759 h 65.83951 c 3.35998,0 3.27998,1.199992 1.67999,3.439975 -1.67999,2.239983 -4.39997,6.079955 -6.07996,8.399938 -0.87999,1.119991 -2.39998,3.279975 2.71998,3.279975 h 26.87981 c 0,0 4.31996,-5.919956 7.99994,-10.879919 4.87996,-6.71995 0.39999,-20.639847 -17.27988,-20.639847 z"
     id="path13"
     transform="translate(-1.0399923,-0.95999289)" />
  <path
     style="fill:#d40511;fill-opacity:1;fill-rule:nonzero;stroke:none"
     clip-path="url(#clipEmfPath1)"
     d="m 242.5582,47.599647 h -84.87937 l 23.19983,-31.519766 h 34.71974 l -13.2799,17.999867 h 15.43989 l 13.2799,-17.999867 h 34.71974 z"
     id="path14"
     transform="translate(-1.0399923,-0.95999289)" />
  <path
     style="fill:#d40511;fill-opacity:1;fill-rule:nonzero;stroke:none"
     clip-path="url(#clipEmfPath1)"
     d="m 313.75768,16.079881 -23.19983,31.519766 h -36.71973 c 0,0 23.19983,-31.519766 23.19983,-31.519766 z"
     id="path15"
     transform="translate(-1.0399923,-0.95999289)" />
  <path
     style="fill:#d40511;fill-opacity:1;fill-rule:nonzero;stroke:none"
     clip-path="url(#clipEmfPath1)"
     d="M 124.87907,108.79919 V 83.75938 h 16.71988 v 4.879963 h -11.03992 v 5.119962 h 9.83993 v 4.719966 h -9.83993 v 5.439959 h 11.35992 v 4.87996 z"
     id="path16"
     transform="translate(-1.0399923,-0.95999289)" />
  <path
     style="fill:#d40511;fill-opacity:1;fill-rule:nonzero;stroke:none"
     clip-path="url(#clipEmfPath1)"
     d="m 143.99893,108.79919 6.07996,-9.679924 -5.59996,-9.679929 h 5.99996 l 3.11997,5.999956 h 0.64 l 3.11997,-5.999956 h 5.75996 l -5.59996,9.679929 6.07996,9.679924 h -6.07996 l -3.51997,-5.99995 h -0.64 l -3.51997,5.99995 z"
     id="path17"
     transform="translate(-1.0399923,-0.95999289)" />
  <path
     style="fill:#d40511;fill-opacity:1;fill-rule:nonzero;stroke:none"
     clip-path="url(#clipEmfPath1)"
     d="m 175.0387,93.679306 c -1.35999,0 -2.47998,0.639995 -3.27997,1.759987 v 7.359947 c 0.79999,1.19999 1.91998,1.75999 3.27997,1.75999 1.19999,0 1.99999,-0.4 2.63998,-1.28 0.64,-0.79999 0.88,-1.99998 0.88,-3.519969 v -1.27999 c 0,-1.519989 -0.24,-2.71998 -0.88,-3.519974 -0.63999,-0.879994 -1.43999,-1.279991 -2.63998,-1.279991 z m -8.79993,22.319834 V 89.439337 h 5.19996 v 3.359976 c 0.48,-1.199992 1.27999,-2.079985 2.23998,-2.71998 1.04,-0.719995 2.15999,-1.039993 3.43998,-1.039993 2.23998,0 3.91997,0.879994 5.11996,2.479982 1.27999,1.679988 1.83999,3.919971 1.83999,6.879949 v 1.439989 c 0,2.95998 -0.56,5.19996 -1.83999,6.87995 -1.19999,1.59999 -2.87998,2.47998 -5.11996,2.47998 -2.47998,0 -4.23997,-1.19999 -5.35996,-3.51997 v 10.31992 z"
     id="path18"
     transform="translate(-1.0399923,-0.95999289)" />
  <path
     style="fill:#d40511;fill-opacity:1;fill-rule:nonzero;stroke:none"
     clip-path="url(#clipEmfPath1)"
     d="M 188.23861,108.79919 V 89.439337 h 5.19996 v 4.799965 c 0.31999,-0.799994 0.63999,-1.679988 1.11999,-2.399982 0.48,-0.799994 1.11999,-1.43999 1.83999,-1.919986 0.71999,-0.479997 1.67998,-0.719995 2.79997,-0.719995 0.24,0 0.4,0 0.64,0 0.16,0 0.4,0.08 0.63999,0.08 v 5.119962 c -0.15999,-0.08 -0.39999,-0.08 -0.63999,-0.08 -0.24,0 -0.48,0 -0.71999,0 -1.35999,0 -2.47999,0.239999 -3.35998,0.799994 -0.87999,0.479997 -1.59999,1.039993 -1.99999,1.679988 v 11.999907 z"
     id="path19"
     transform="translate(-1.0399923,-0.95999289)" />
  <path
     style="fill:#d40511;fill-opacity:1;fill-rule:nonzero;stroke:none"
     clip-path="url(#clipEmfPath1)"
     d="m 211.19844,93.359308 c -1.12,0 -1.91999,0.399997 -2.47999,1.039993 -0.47999,0.719994 -0.79999,1.679987 -0.87999,2.959978 h 6.63995 c -0.08,-1.279991 -0.32,-2.239984 -0.87999,-2.959978 -0.56,-0.639996 -1.35999,-1.039993 -2.39998,-1.039993 z m 0.79999,15.919882 c -2.87998,0 -5.19996,-0.87999 -6.95995,-2.47998 -1.75999,-1.67999 -2.55998,-3.99997 -2.55998,-6.95995 v -1.439989 c 0,-2.959978 0.79999,-5.199961 2.39998,-6.879949 1.59999,-1.679987 3.75997,-2.559981 6.39995,-2.559981 2.71998,0 4.79997,0.879994 6.31996,2.559981 1.43999,1.679988 2.15998,3.919971 2.15998,6.879949 v 2.399979 h -11.83991 c 0.32,2.71998 1.83999,4.07997 4.47997,4.07997 0.87999,0 1.75998,-0.16 2.47998,-0.39999 0.71999,-0.24 1.51999,-0.64 2.23998,-1.12 l 2.23999,3.43998 c -0.96,0.71999 -2.07999,1.35999 -3.27998,1.75999 -1.27999,0.47999 -2.63998,0.71999 -4.07997,0.71999 z"
     id="path20"
     transform="translate(-1.0399923,-0.95999289)" />
  <path
     style="fill:#d40511;fill-opacity:1;fill-rule:nonzero;stroke:none"
     clip-path="url(#clipEmfPath1)"
     d="m 229.5983,109.27919 c -1.59999,0 -2.95998,-0.24 -4.15997,-0.63999 -1.27999,-0.4 -2.39998,-1.04 -3.43997,-1.91999 l 2.15998,-3.51997 c 1.67999,1.19999 3.43997,1.75998 5.35996,1.75998 1.99999,0 2.95998,-0.55999 2.95998,-1.75998 0,-0.8 -0.72,-1.35999 -2.07999,-1.67999 l -2.07998,-0.48 c -1.75999,-0.4 -3.03998,-1.039991 -3.99997,-2.079983 -0.95999,-1.039992 -1.35999,-2.319983 -1.35999,-3.839972 0,-1.919985 0.63999,-3.439974 2.07998,-4.479966 1.35999,-1.119992 3.27998,-1.679988 5.67996,-1.679988 2.87998,0 5.27996,0.799994 7.35995,2.239983 l -2.07999,3.519974 c -1.35999,-0.959993 -2.95998,-1.519988 -4.71996,-1.519988 -1.83999,0 -2.71998,0.559995 -2.71998,1.679987 0,0.959993 0.71999,1.519989 2.07998,1.839987 l 2.15999,0.479996 c 3.51997,0.799994 5.35996,2.71998 5.35996,5.75996 0,1.99998 -0.8,3.51997 -2.23999,4.63996 -1.51999,1.11999 -3.67997,1.67999 -6.31995,1.67999 z"
     id="path21"
     transform="translate(-1.0399923,-0.95999289)" />
  <path
     style="fill:#d40511;fill-opacity:1;fill-rule:nonzero;stroke:none"
     clip-path="url(#clipEmfPath1)"
     d="m 247.99816,109.27919 c -1.51999,0 -2.95998,-0.24 -4.15997,-0.63999 -1.19999,-0.4 -2.31998,-1.04 -3.43997,-1.91999 l 2.23998,-3.51997 c 1.59999,1.19999 3.35998,1.75998 5.27996,1.75998 1.99999,0 3.03998,-0.55999 3.03998,-1.75998 0,-0.8 -0.71999,-1.35999 -2.07998,-1.67999 l -2.15999,-0.48 c -1.67999,-0.4 -3.03998,-1.039991 -3.99997,-2.079983 -0.87999,-1.039992 -1.35999,-2.319983 -1.35999,-3.839972 0,-1.919985 0.72,-3.439974 2.07999,-4.479966 1.35999,-1.119992 3.27997,-1.679988 5.67995,-1.679988 2.87998,0 5.35996,0.799994 7.43995,2.239983 l -2.07999,3.519974 c -1.43998,-0.959993 -2.95997,-1.519988 -4.79996,-1.519988 -1.75999,0 -2.71998,0.559995 -2.71998,1.679987 0,0.959993 0.72,1.519989 2.07999,1.839987 l 2.15998,0.479996 c 3.59997,0.799994 5.35996,2.71998 5.35996,5.75996 0,1.99998 -0.72,3.51997 -2.23998,4.63996 -1.51999,1.11999 -3.59998,1.67999 -6.31996,1.67999 z"
     id="path22"
     transform="translate(-1.0399923,-0.95999289)" />
</svg>
